<?xml version="1.0" encoding="UTF-8" standalone="no"?>
<!-- Created with Inkscape (http://www.inkscape.org/) -->

<svg
   width="16.300816mm"
   height="8.6676064mm"
   viewBox="0 0 16.300816 8.6676064"
   version="1.1"
   id="svg5018"
   xml:space="preserve"
   xmlns="http://www.w3.org/2000/svg"
   xmlns:svg="http://www.w3.org/2000/svg"><defs
     id="defs5015" /><g
     id="g79082"
     transform="translate(-45.998624,-10.325033)"><g
       id="g7554"
       transform="matrix(1.3688189,0,0,1.3688189,-9.9124077,-20.551273)"><g
         id="layer2"><g
           aria-label="   FOR YOU"
           id="text12136"
           style="font-weight:bold;font-size:2.83497px;font-family:Trueno;-inkscape-font-specification:'Trueno Bold';writing-mode:vertical-lr;direction:rtl;fill:#131313;stroke:#c7b884;stroke-width:0.114938"><path
             d="m 40.846183,24.574772 h 0.119069 v -0.890181 h 0.95255 v -0.119068 h -0.95255 v -0.856161 h 1.074454 v -0.116234 h -1.193523 z"
             style="font-weight:200;-inkscape-font-specification:'Trueno Ultra-Light';writing-mode:lr-tb;fill:#fefefe;stroke:none"
             id="path12138" /><path
             d="m 42.201299,23.582532 c 0,0.549985 0.459265,0.995075 1.026259,0.995075 0.566994,0 1.026259,-0.44509 1.026259,-0.995075 0,-0.549984 -0.459265,-0.992239 -1.026259,-0.992239 -0.566994,0 -1.026259,0.442255 -1.026259,0.992239 z m 0.121904,0 c 0,-0.484779 0.408235,-0.876005 0.904355,-0.876005 0.49612,0 0.904356,0.391226 0.904356,0.876005 0,0.48478 -0.408236,0.878841 -0.904356,0.878841 -0.49612,0 -0.904355,-0.394061 -0.904355,-0.878841 z"
             style="font-weight:200;-inkscape-font-specification:'Trueno Ultra-Light';writing-mode:lr-tb;fill:#fefefe;stroke:none"
             id="path12140" /><path
             d="m 44.726101,24.533584 0.11877,0.0084 0.04677,-0.658891 0.579711,0.04115 c 0.05938,0.0042 0.113315,0.0052 0.167646,5.31e-4 l 0.419028,0.703319 0.141392,0.01004 -0.445901,-0.725122 c 0.319512,-0.0569 0.507667,-0.26523 0.531552,-0.601745 0.0293,-0.412867 -0.230967,-0.670076 -0.720186,-0.7048 l -0.69848,-0.04957 z m 0.173765,-0.766403 0.07707,-1.085896 0.582538,0.04135 c 0.412867,0.0293 0.634131,0.23543 0.609444,0.583256 -0.02509,0.353482 -0.27365,0.531945 -0.686517,0.502641 z"
             style="font-weight:200;-inkscape-font-specification:'Trueno Ultra-Light';writing-mode:lr-tb;fill:#fefefe;stroke:none"
             id="path12142" /><path
             d="m 48.193057,23.176777 0.09989,1.487167 -0.341781,0.633802 0.102307,0.05517 0.344471,-0.638793 1.284796,-0.734027 -0.112288,-0.06055 -1.157629,0.641557 -0.10748,-1.323772 z"
             style="font-weight:200;-inkscape-font-specification:'Trueno Ultra-Light';writing-mode:lr-tb;fill:#fefefe;stroke:none"
             id="path12144" /><path
             d="m 49.465432,25.028825 c -0.403252,0.373992 -0.417293,1.013393 -0.03173,1.429117 0.385559,0.415724 1.024206,0.449796 1.427458,0.0758 0.403252,-0.373992 0.415214,-1.011465 0.02965,-1.427189 -0.385559,-0.415724 -1.022127,-0.451724 -1.425379,-0.07773 z m 0.0829,0.08938 c 0.355444,-0.329653 0.919896,-0.296368 1.257261,0.06739 0.337364,0.363758 0.328117,0.929115 -0.02733,1.258768 -0.355444,0.329653 -0.921975,0.298295 -1.259339,-0.06546 -0.337364,-0.363759 -0.326039,-0.931043 0.0294,-1.260696 z"
             style="font-weight:200;-inkscape-font-specification:'Trueno Ultra-Light';writing-mode:lr-tb;fill:#fefefe;stroke:none"
             id="path12146" /><path
             d="m 51.088951,27.317196 c -0.482071,0.183921 -0.655091,0.565499 -0.474201,1.039623 0.18089,0.474125 0.564106,0.643485 1.046177,0.459564 l 1.09393,-0.417361 -0.04244,-0.111247 -1.09393,0.417361 c -0.413203,0.157647 -0.741529,0.01286 -0.895134,-0.389749 -0.153605,-0.402609 -0.0052,-0.729297 0.408045,-0.886944 l 1.09393,-0.417361 -0.04244,-0.111247 z"
             style="font-weight:200;-inkscape-font-specification:'Trueno Ultra-Light';writing-mode:lr-tb;fill:#fefefe;stroke:none"
             id="path12148" /></g></g></g></g></svg>
